<?xml version="1.0" encoding="utf-8"?>
<!-- Generator: Adobe Illustrator 16.0.4, SVG Export Plug-In . SVG Version: 6.00 Build 0)  -->
<!DOCTYPE svg PUBLIC "-//W3C//DTD SVG 1.1//EN" "http://www.w3.org/Graphics/SVG/1.1/DTD/svg11.dtd">
<svg version="1.1" xmlns="http://www.w3.org/2000/svg" xmlns:xlink="http://www.w3.org/1999/xlink" x="0px" y="0px"
	 width="478.992px" height="478.992px" viewBox="0 0 478.992 478.992" enable-background="new 0 0 478.992 478.992"
	 xml:space="preserve">
<g id="Layer_1">
</g>
<g id="Calque_2">
	<g>
		<g>
			<path fill="none" stroke="#3B569C" stroke-width="25" stroke-miterlimit="10" d="M466.492,239.498
				c0,125.364-101.631,226.993-226.994,226.993C114.131,466.491,12.5,364.862,12.5,239.498
				c0-125.367,101.631-226.996,226.998-226.996C364.861,12.502,466.492,114.131,466.492,239.498z"/>
			<path fill="#232B3D" stroke="#EBEBEB" stroke-miterlimit="10" d="M310.894,327.728"/>
		</g>
		<g>
			<g>
				<path fill="none" stroke="#3B569C" stroke-width="17" stroke-linecap="round" stroke-miterlimit="10" d="M246.808,316.837
					H115.181c-9.766,0-17.677-7.91-17.677-17.67V148.975c0-9.764,7.911-17.674,17.677-17.674h224.395
					c9.766,0,17.677,7.91,17.677,17.674v75.096"/>
				
					<line fill="none" stroke="#3B569C" stroke-width="17" stroke-linecap="round" stroke-miterlimit="10" x1="97.504" y1="205.518" x2="357.252" y2="205.518"/>
				
					<line fill="none" stroke="#3B569C" stroke-width="17" stroke-linecap="round" stroke-miterlimit="10" x1="97.504" y1="168.41" x2="357.252" y2="168.41"/>
			</g>
			<path fill="none" stroke="#3B569C" stroke-width="17" stroke-linecap="round" stroke-miterlimit="10" d="M375.807,372.495
				h-98.953c-3.418,0-6.185-2.764-6.185-6.182v-61.847c0-3.419,2.767-6.183,6.185-6.183h98.953c3.417,0,6.185,2.764,6.185,6.183
				v61.847C381.991,369.731,379.224,372.495,375.807,372.495z"/>
			<g>
				<path fill="none" stroke="#3B569C" stroke-width="17" stroke-miterlimit="10" d="M295.771,298.859v-25.253
					c0-17.058,13.872-30.926,30.921-30.926c17.052,0,30.924,13.868,30.924,30.926v24.678"/>
			</g>
		</g>
	</g>
</g>
<g id="Calque_3">
</g>
</svg>
